<svg id="Layer_1" data-name="Layer 1" xmlns="http://www.w3.org/2000/svg" viewBox="0 0 240.99 37"><defs><style>.cls-1{fill:#fff;}.cls-2{fill:#231f20;}</style></defs><title>unmix-io_logo_invert</title><path class="cls-1" d="M178.09,423.57h16.68l3.72-6.28c.88,7.72,2,14.1,3.45,14.13,2.75,0,4.38-23.44,7-23.39,2.93.06,3.45,30.55,6.38,30.66,1.82.07,3.73-11.6,5-20.72,1.23-12.68,2.26-15.25,3-15.25.24,0,1,.3,3.63,14.58,1.86,10.19,2.13,14,3.3,14.17,1,.11,2.6-2.23,5.64-14.17.11,1,.64,4.3,3.38,6.13a6.6,6.6,0,0,0,1.48.74l13.42-.59" transform="translate(-177.19 -402.22)"/><path class="cls-2" d="M178.09,424.07h8.34c2.21,0,6.34.78,8.34,0,2.29-.9,3.45-4.55,4.69-6.64l-2-.14c.22,1.83.55,16.21,5.19,14.51,2.85-1.05,3.19-8.74,3.63-11.1.56-3,1-6.07,1.81-9a9.41,9.41,0,0,1,1.12-3.05c-.23.32-1-.59-.58.21a4.66,4.66,0,0,1,.47,1.26c1.23,6.33,1.83,12.7,2.66,19.1.26,2.06.26,8.91,2.81,9.88,3.86,1.47,4.62-8.34,5-10.15,1-5.31,1.62-10.64,2.26-16,.23-1.94.47-3.88.83-5.8.19-1,1-2.75,1-3.67-.05-.61-.85-.69-1-.16-.07.38.5,1.07.54,1.49.42,4.71,2.16,9.68,3,14.35.36,2.05.42,13.37,4.39,12.81s5.47-11.78,6.22-14.64h-2c1.5,10.16,11.77,7.11,19.28,6.77,1.18-.05,1.21-1,0-1-6.18.27-16.05,2.54-17.28-5.78-.11-.73-1.83-.67-2,0-1,3.85-1.88,8.18-3.71,11.78-.27.54-1.1,1.72-.82,1.79a26,26,0,0,0-.67-3.62c-1.43-7.37-2.22-14.95-4.33-22.18-.38-1.31-.65-3.13-2.41-2.81-2.21.4-2.31,5.34-2.54,6.82-1.43,9.31-1.72,19-4.78,27.94-.27.79.35,1.59-.17.5a12.37,12.37,0,0,1-.77-2.94c-.55-2.72-.85-5.51-1.17-8.26-.23-2-.82-21.29-5.61-18.49-3,1.73-3.16,11-3.7,13.84-.48,2.51-.65,6.21-2.06,8.4-.06.09-.37.86-.54.89.88-.19-.41-3.28-.52-3.72a92.61,92.61,0,0,1-1.52-9.95c-.08-.7-1.67-.62-2-.13-.76,1.29-1.74,3.65-2.79,4.71-1.64,1.65-3.43,1.2-5.53,1.2H178.09c-1.19,0-1.2,1,0,1Z" transform="translate(-177.19 -402.22)"/><path class="cls-1" d="M284.31,434.71v-6.09h-.1a8.49,8.49,0,0,1-2.95,4.75,9,9,0,0,1-5.93,1.87,10.8,10.8,0,0,1-3.53-.55A7.49,7.49,0,0,1,269,433a7.68,7.68,0,0,1-1.82-2.78,10.3,10.3,0,0,1-.65-3.82V410h1v16.23a9.74,9.74,0,0,0,.62,3.67,6.67,6.67,0,0,0,4.2,3.94,9.9,9.9,0,0,0,3,.45,8.6,8.6,0,0,0,3.89-.84,8.19,8.19,0,0,0,2.81-2.26,9.84,9.84,0,0,0,1.7-3.28,13.13,13.13,0,0,0,.58-3.94V410h1v24.67Z" transform="translate(-177.19 -402.22)"/><path class="cls-1" d="M291.51,410v6.1h.09a9.06,9.06,0,0,1,1.08-2.64,8.45,8.45,0,0,1,4.49-3.53,10.18,10.18,0,0,1,3.31-.5A10.5,10.5,0,0,1,304,410a8,8,0,0,1,2.79,1.71,7.68,7.68,0,0,1,1.82,2.78,10.47,10.47,0,0,1,.65,3.82v16.36h-1V418.49a9.54,9.54,0,0,0-.63-3.67,6.61,6.61,0,0,0-4.2-3.94,9.81,9.81,0,0,0-3-.45,8.56,8.56,0,0,0-3.88.84,8.28,8.28,0,0,0-2.81,2.25,10.09,10.09,0,0,0-1.71,3.29,13.46,13.46,0,0,0-.57,3.94v14h-1V410Z" transform="translate(-177.19 -402.22)"/><path class="cls-2" d="M315.51,410v6.1h.09a9.3,9.3,0,0,1,1.06-2.64,8.57,8.57,0,0,1,1.78-2.11,8.19,8.19,0,0,1,2.32-1.42,7.26,7.26,0,0,1,2.72-.5,7,7,0,0,1,4.82,1.46,7.42,7.42,0,0,1,2.57,4.3H331a7.64,7.64,0,0,1,2.84-4.18,8,8,0,0,1,5-1.58,9.07,9.07,0,0,1,3.74.67,6.2,6.2,0,0,1,2.4,1.85,7.17,7.17,0,0,1,1.3,2.83,16.62,16.62,0,0,1,.38,3.67v16.22h-1V418.49a16,16,0,0,0-.31-3.31,6.57,6.57,0,0,0-1.1-2.55,5.28,5.28,0,0,0-2.12-1.63,8.44,8.44,0,0,0-3.33-.57,7.35,7.35,0,0,0-3.22.69,7.49,7.49,0,0,0-2.45,1.9,8.45,8.45,0,0,0-1.53,2.76,10.26,10.26,0,0,0-.53,3.29v15.64h-1V418.88a20,20,0,0,0-.26-3.27,7.5,7.5,0,0,0-1-2.69,5.07,5.07,0,0,0-2-1.82,7.3,7.3,0,0,0-3.36-.67,6.66,6.66,0,0,0-3.32.84,8,8,0,0,0-2.52,2.25,10.92,10.92,0,0,0-1.58,3.29,13.79,13.79,0,0,0-.55,3.94v14h-1V410Z" transform="translate(-177.19 -402.22)"/><path class="cls-2" d="M351.89,405.29v-2.85h1v2.85Zm0,29.42V410h1v24.67Z" transform="translate(-177.19 -402.22)"/><path class="cls-2" d="M374.88,410l-9,11.91,9.89,12.76h-1.2l-9.31-12-9.27,12h-1.15L364.66,422l-9-11.91h1.25l8.31,11.19L373.73,410Z" transform="translate(-177.19 -402.22)"/><path class="cls-2" d="M381.22,434.71V432h1v2.7Z" transform="translate(-177.19 -402.22)"/><path class="cls-2" d="M391,405.29v-2.85h1v2.85Zm0,29.42V410h1v24.67Z" transform="translate(-177.19 -402.22)"/><path class="cls-2" d="M396.67,417.51a12.57,12.57,0,0,1,2.14-4.11,10.74,10.74,0,0,1,3.48-2.85,10.23,10.23,0,0,1,4.8-1.08,10.08,10.08,0,0,1,4.75,1.08,10.74,10.74,0,0,1,3.48,2.85,12.38,12.38,0,0,1,2.14,4.11,16.83,16.83,0,0,1,0,9.74,12.23,12.23,0,0,1-2.14,4.1,10.12,10.12,0,0,1-8.28,3.89,10.35,10.35,0,0,1-4.75-1.05,10.47,10.47,0,0,1-3.48-2.84,12.42,12.42,0,0,1-2.14-4.1,16.83,16.83,0,0,1,0-9.74Zm.89,9.38a11.41,11.41,0,0,0,1.95,3.82,9.63,9.63,0,0,0,3.19,2.64,9.47,9.47,0,0,0,4.39,1,9.34,9.34,0,0,0,4.34-1,9.77,9.77,0,0,0,3.2-2.64,11.58,11.58,0,0,0,1.94-3.82,15.66,15.66,0,0,0,.65-4.51,15.42,15.42,0,0,0-.65-4.46,11.39,11.39,0,0,0-1.94-3.82,9.83,9.83,0,0,0-3.2-2.66,9,9,0,0,0-4.34-1,9.12,9.12,0,0,0-4.39,1,9.69,9.69,0,0,0-3.19,2.66,11.23,11.23,0,0,0-1.95,3.82,15.42,15.42,0,0,0-.65,4.46A15.66,15.66,0,0,0,397.56,426.89Z" transform="translate(-177.19 -402.22)"/></svg>